<svg width="88" height="106" viewBox="0 0 88 106" fill="none" xmlns="http://www.w3.org/2000/svg">
<path fill-rule="evenodd" clip-rule="evenodd" d="M44 49.1406C56.1503 49.1406 66 34.7909 66 22.6406C66 10.4904 56.1503 0.640625 44 0.640625C31.8497 0.640625 22 10.4904 22 22.6406C22 34.7909 31.8497 49.1406 44 49.1406ZM35.3697 54.3497C17.5081 49.6104 0 63.0759 0 81.5556V87.6089C0 92.5921 3.12233 97.0411 7.80861 98.7353L9.54998 99.3649C31.1984 107.192 54.8759 107.359 76.6332 99.8405L80.0535 98.6584C84.8094 97.0149 88 92.5364 88 87.5045V81.5446C88 63.0711 70.4997 49.6099 52.6444 54.3491C46.9845 55.8514 41.0299 55.8515 35.3697 54.3497Z" fill="#212121"/>
</svg>
